<svg xmlns="http://www.w3.org/2000/svg" xmlns:xlink="http://www.w3.org/1999/xlink" width="1920" zoomAndPan="magnify" viewBox="0 0 1440 809.999993" height="1080" preserveAspectRatio="xMidYMid meet" version="1.0"><defs><clipPath id="05a9dbe6b6"><path d="M 147.824219 317 L 350 317 L 350 543.828125 L 147.824219 543.828125 Z M 147.824219 317 " clip-rule="nonzero"/></clipPath><clipPath id="f4f2059aa3"><path d="M 147.824219 266.328125 L 299 266.328125 L 299 530 L 147.824219 530 Z M 147.824219 266.328125 " clip-rule="nonzero"/></clipPath><clipPath id="61efcf707e"><path d="M 459 354 L 1292.324219 354 L 1292.324219 502 L 459 502 Z M 459 354 " clip-rule="nonzero"/></clipPath></defs><g clip-path="url(#05a9dbe6b6)"><path fill="#ffa116" d="M 316.527344 473.996094 C 322.757812 467.769531 332.84375 467.785156 339.054688 474.03125 C 345.265625 480.277344 345.25 490.386719 339.019531 496.609375 L 311.347656 524.253906 C 285.820312 549.753906 244.191406 550.125 218.234375 525.113281 C 218.085938 524.96875 206.523438 513.628906 168.394531 476.222656 C 143.027344 451.335938 140.5 411.515625 164.371094 385.945312 L 208.878906 338.265625 C 232.570312 312.882812 276.246094 310.109375 303.335938 332.027344 L 343.757812 364.734375 C 350.605469 370.273438 351.675781 380.324219 346.148438 387.1875 C 340.621094 394.046875 330.589844 395.117188 323.746094 389.578125 L 283.320312 356.871094 C 269.152344 345.410156 244.371094 346.984375 232.148438 360.078125 L 187.636719 407.761719 C 176.015625 420.207031 177.289062 440.261719 190.679688 453.402344 C 218.683594 480.871094 240.261719 502.039062 240.285156 502.0625 C 253.78125 515.070312 275.605469 514.875 288.855469 501.636719 Z M 316.527344 473.996094 " fill-opacity="1" fill-rule="nonzero"/></g><path fill="#b3b3b3" d="M 249.308594 446.332031 C 240.507812 446.332031 233.375 439.183594 233.375 430.367188 C 233.375 421.546875 240.507812 414.398438 249.308594 414.398438 L 366.796875 414.398438 C 375.59375 414.398438 382.726562 421.546875 382.726562 430.367188 C 382.726562 439.183594 375.59375 446.332031 366.796875 446.332031 Z M 249.308594 446.332031 " fill-opacity="1" fill-rule="evenodd"/><g clip-path="url(#f4f2059aa3)"><path fill="#000000" d="M 271.308594 271.386719 C 277.320312 264.949219 287.402344 264.609375 293.828125 270.636719 C 300.253906 276.660156 300.589844 286.761719 294.578125 293.203125 L 187.636719 407.761719 C 176.015625 420.207031 177.289062 440.261719 190.679688 453.402344 L 240.066406 501.851562 C 246.355469 508.019531 246.460938 518.128906 240.308594 524.429688 C 234.152344 530.730469 224.066406 530.839844 217.777344 524.671875 L 168.394531 476.21875 C 143.027344 451.332031 140.5 411.515625 164.371094 385.945312 Z M 271.308594 271.386719 " fill-opacity="1" fill-rule="evenodd"/></g><g clip-path="url(#61efcf707e)"><path fill="#000000" d="M 477.46875 363.535156 L 477.46875 468.613281 C 477.46875 472.648438 478.902344 476.101562 481.765625 478.964844 C 484.628906 481.828125 488.078125 483.261719 492.113281 483.261719 L 520.515625 483.261719 C 522.988281 483.261719 525.105469 484.140625 526.859375 485.898438 C 528.617188 487.65625 529.496094 489.773438 529.496094 492.246094 L 529.496094 492.441406 C 529.496094 494.914062 528.617188 497 526.859375 498.691406 C 525.105469 500.449219 522.988281 501.328125 520.515625 501.328125 L 492.113281 501.328125 C 483.066406 501.328125 475.355469 498.136719 468.976562 491.757812 C 462.601562 485.378906 459.410156 477.664062 459.410156 468.613281 L 459.410156 363.535156 C 459.410156 361.0625 460.289062 358.945312 462.046875 357.1875 C 463.804688 355.496094 465.886719 354.648438 468.292969 354.648438 L 468.585938 354.648438 C 470.996094 354.648438 473.078125 355.496094 474.835938 357.1875 C 476.589844 358.945312 477.46875 361.0625 477.46875 363.535156 Z M 590.601562 412.949219 C 580.839844 412.949219 572.511719 416.398438 565.613281 423.300781 C 558.78125 430.203125 555.363281 438.535156 555.363281 448.300781 C 555.363281 450.058594 555.492188 451.785156 555.753906 453.476562 L 617.542969 425.546875 C 610.515625 417.148438 601.535156 412.949219 590.601562 412.949219 Z M 639.015625 425.839844 C 640.058594 428.054688 640.15625 430.332031 639.308594 432.675781 C 638.464844 434.953125 636.902344 436.613281 634.625 437.65625 C 625.515625 441.757812 613.539062 447.160156 598.703125 453.867188 C 580.285156 462.199219 568.347656 467.605469 562.878906 470.078125 C 569.90625 479.0625 579.148438 483.554688 590.601562 483.554688 C 598.214844 483.554688 605.113281 481.308594 611.296875 476.816406 C 617.28125 472.453125 621.480469 466.789062 623.886719 459.824219 C 625.320312 455.789062 628.183594 453.769531 632.476562 453.769531 C 635.535156 453.769531 637.976562 455.039062 639.796875 457.578125 C 641.554688 460.050781 641.914062 462.753906 640.871094 465.683594 C 637.226562 476.230469 630.851562 484.757812 621.738281 491.269531 C 612.433594 497.976562 602.054688 501.328125 590.601562 501.328125 C 575.894531 501.328125 563.335938 496.121094 552.921875 485.703125 C 542.511719 475.285156 537.304688 462.722656 537.304688 448.007812 C 537.304688 433.292969 542.511719 420.730469 552.921875 410.3125 C 563.335938 399.894531 575.894531 394.6875 590.601562 394.6875 C 601.207031 394.6875 610.90625 397.585938 619.691406 403.378906 C 628.34375 409.042969 634.785156 416.53125 639.015625 425.839844 Z M 709.394531 412.949219 C 699.632812 412.949219 691.304688 416.398438 684.40625 423.300781 C 677.574219 430.203125 674.15625 438.535156 674.15625 448.300781 C 674.15625 450.058594 674.285156 451.785156 674.546875 453.476562 L 736.335938 425.546875 C 729.308594 417.148438 720.328125 412.949219 709.394531 412.949219 Z M 757.808594 425.839844 C 758.851562 428.054688 758.949219 430.332031 758.101562 432.675781 C 757.257812 434.953125 755.695312 436.613281 753.417969 437.65625 C 744.308594 441.757812 732.332031 447.160156 717.496094 453.867188 C 699.082031 462.199219 687.140625 467.605469 681.671875 470.078125 C 688.699219 479.0625 697.941406 483.554688 709.394531 483.554688 C 717.007812 483.554688 723.90625 481.308594 730.089844 476.816406 C 736.074219 472.453125 740.273438 466.789062 742.679688 459.824219 C 744.113281 455.789062 746.976562 453.769531 751.269531 453.769531 C 754.328125 453.769531 756.769531 455.039062 758.589844 457.578125 C 760.347656 460.050781 760.707031 462.753906 759.664062 465.683594 C 756.019531 476.230469 749.644531 484.757812 740.53125 491.269531 C 731.226562 497.976562 720.847656 501.328125 709.394531 501.328125 C 694.6875 501.328125 682.128906 496.121094 671.714844 485.703125 C 661.304688 475.285156 656.097656 462.722656 656.097656 448.007812 C 656.097656 433.292969 661.304688 420.730469 671.714844 410.3125 C 682.128906 399.894531 694.6875 394.6875 709.394531 394.6875 C 720 394.6875 729.699219 397.585938 738.484375 403.378906 C 747.136719 409.042969 753.582031 416.53125 757.808594 425.839844 Z M 786.996094 354.648438 C 789.402344 354.648438 791.484375 355.496094 793.242188 357.1875 C 795 358.945312 795.878906 361.0625 795.878906 363.535156 L 795.878906 394.6875 L 813.449219 394.6875 C 815.855469 394.6875 817.9375 395.566406 819.695312 397.324219 C 821.453125 399.082031 822.332031 401.199219 822.332031 403.671875 L 822.332031 403.867188 C 822.332031 406.339844 821.453125 408.425781 819.695312 410.117188 C 817.9375 411.875 815.855469 412.753906 813.449219 412.753906 L 795.878906 412.753906 L 795.878906 473.59375 C 795.878906 476.261719 796.820312 478.542969 798.710938 480.429688 C 800.597656 482.316406 802.90625 483.261719 805.640625 483.261719 L 813.449219 483.261719 C 815.855469 483.261719 817.9375 484.140625 819.695312 485.898438 C 821.453125 487.65625 822.332031 489.773438 822.332031 492.246094 L 822.332031 492.441406 C 822.332031 494.914062 821.453125 497 819.695312 498.691406 C 817.9375 500.449219 815.855469 501.328125 813.449219 501.328125 L 805.640625 501.328125 C 797.960938 501.328125 791.386719 498.625 785.921875 493.222656 C 780.519531 487.753906 777.820312 481.210938 777.820312 473.59375 L 777.820312 363.535156 C 777.820312 361.0625 778.699219 358.945312 780.457031 357.1875 C 782.210938 355.496094 784.296875 354.648438 786.703125 354.648438 Z M 906.863281 354.648438 C 913.042969 354.648438 919.128906 355.398438 925.117188 356.894531 C 929.605469 358.066406 931.851562 360.929688 931.851562 365.488281 L 931.851562 365.78125 C 931.851562 368.644531 930.679688 370.988281 928.335938 372.8125 C 926.058594 374.570312 923.523438 375.089844 920.722656 374.375 C 916.167969 373.203125 911.546875 372.617188 906.863281 372.617188 C 891.636719 372.617188 878.621094 378.019531 867.816406 388.828125 C 857.015625 399.636719 851.613281 412.6875 851.613281 427.988281 C 851.613281 443.289062 857.015625 456.339844 867.816406 467.148438 C 878.621094 477.890625 891.636719 483.261719 906.863281 483.261719 C 911.546875 483.261719 916.167969 482.707031 920.722656 481.601562 C 923.523438 480.886719 926.058594 481.40625 928.335938 483.164062 C 930.679688 484.921875 931.851562 487.265625 931.851562 490.195312 L 931.851562 490.390625 C 931.851562 495.011719 929.605469 497.910156 925.117188 499.082031 C 919.128906 500.578125 913.042969 501.328125 906.863281 501.328125 C 886.625 501.328125 869.347656 494.167969 855.03125 479.84375 C 840.714844 465.519531 833.554688 448.234375 833.554688 427.988281 C 833.554688 407.742188 840.714844 390.457031 855.03125 376.132812 C 869.347656 361.808594 886.625 354.648438 906.863281 354.648438 Z M 997.835938 412.949219 C 988.074219 412.949219 979.746094 416.398438 972.847656 423.300781 C 966.015625 430.203125 962.597656 438.535156 962.597656 448.300781 C 962.597656 458 966.015625 466.300781 972.847656 473.203125 C 979.746094 480.105469 988.074219 483.554688 997.835938 483.554688 C 1007.597656 483.554688 1015.894531 480.105469 1022.726562 473.203125 C 1029.625 466.300781 1033.074219 458 1033.074219 448.300781 C 1033.074219 438.535156 1029.625 430.203125 1022.726562 423.300781 C 1015.894531 416.398438 1007.597656 412.949219 997.835938 412.949219 Z M 997.835938 394.6875 C 1012.542969 394.6875 1025.101562 399.894531 1035.515625 410.3125 C 1045.925781 420.730469 1051.132812 433.292969 1051.132812 448.007812 C 1051.132812 462.722656 1045.925781 475.285156 1035.515625 485.703125 C 1025.101562 496.121094 1012.542969 501.328125 997.835938 501.328125 C 983.128906 501.328125 970.570312 496.121094 960.160156 485.703125 C 949.746094 475.285156 944.539062 462.722656 944.539062 448.007812 C 944.539062 433.292969 949.746094 420.730469 960.160156 410.3125 C 970.570312 399.894531 983.128906 394.6875 997.835938 394.6875 Z M 1118.09375 412.949219 C 1108.332031 412.949219 1100.003906 416.398438 1093.105469 423.300781 C 1086.273438 430.203125 1082.855469 438.535156 1082.855469 448.300781 C 1082.855469 458 1086.273438 466.300781 1093.105469 473.203125 C 1100.003906 480.105469 1108.332031 483.554688 1118.09375 483.554688 C 1127.855469 483.554688 1136.152344 480.105469 1142.984375 473.203125 C 1149.882812 466.300781 1153.332031 458 1153.332031 448.300781 C 1153.332031 438.535156 1149.882812 430.203125 1142.984375 423.300781 C 1136.152344 416.398438 1127.855469 412.949219 1118.09375 412.949219 Z M 1162.507812 354.648438 C 1164.914062 354.648438 1166.996094 355.496094 1168.753906 357.1875 C 1170.511719 358.945312 1171.390625 361.0625 1171.390625 363.535156 L 1171.390625 448.300781 C 1171.324219 462.949219 1166.085938 475.449219 1155.675781 485.800781 C 1145.261719 496.152344 1132.734375 501.328125 1118.09375 501.328125 C 1103.386719 501.328125 1090.828125 496.121094 1080.414062 485.703125 C 1070.003906 475.285156 1064.796875 462.722656 1064.796875 448.007812 C 1064.796875 433.292969 1070.003906 420.730469 1080.414062 410.3125 C 1090.828125 399.894531 1103.386719 394.6875 1118.09375 394.6875 C 1131.5 394.6875 1143.246094 399.148438 1153.332031 408.066406 L 1153.332031 363.535156 C 1153.332031 361.0625 1154.210938 358.945312 1155.96875 357.1875 C 1157.722656 355.496094 1159.808594 354.648438 1162.214844 354.648438 Z M 1241.28125 412.949219 C 1231.519531 412.949219 1223.1875 416.398438 1216.292969 423.300781 C 1209.457031 430.203125 1206.042969 438.535156 1206.042969 448.300781 C 1206.042969 450.058594 1206.171875 451.785156 1206.433594 453.476562 L 1268.21875 425.546875 C 1261.191406 417.148438 1252.210938 412.949219 1241.28125 412.949219 Z M 1289.695312 425.839844 C 1290.734375 428.054688 1290.832031 430.332031 1289.988281 432.675781 C 1289.140625 434.953125 1287.582031 436.613281 1285.300781 437.65625 C 1276.191406 441.757812 1264.21875 447.160156 1249.382812 453.867188 C 1230.964844 462.199219 1219.023438 467.605469 1213.558594 470.078125 C 1220.585938 479.0625 1229.828125 483.554688 1241.28125 483.554688 C 1248.894531 483.554688 1255.792969 481.308594 1261.972656 476.816406 C 1267.960938 472.453125 1272.15625 466.789062 1274.566406 459.824219 C 1275.996094 455.789062 1278.859375 453.769531 1283.15625 453.769531 C 1286.214844 453.769531 1288.652344 455.039062 1290.476562 457.578125 C 1292.234375 460.050781 1292.589844 462.753906 1291.550781 465.683594 C 1287.90625 476.230469 1281.527344 484.757812 1272.417969 491.269531 C 1263.113281 497.976562 1252.734375 501.328125 1241.28125 501.328125 C 1226.574219 501.328125 1214.011719 496.121094 1203.601562 485.703125 C 1193.191406 475.285156 1187.984375 462.722656 1187.984375 448.007812 C 1187.984375 433.292969 1193.191406 420.730469 1203.601562 410.3125 C 1214.011719 399.894531 1226.574219 394.6875 1241.28125 394.6875 C 1251.886719 394.6875 1261.582031 397.585938 1270.367188 403.378906 C 1279.023438 409.042969 1285.464844 416.53125 1289.695312 425.839844 Z M 1289.695312 425.839844 " fill-opacity="1" fill-rule="evenodd"/></g></svg>